<?xml version="1.0" encoding="UTF-8" standalone="no"?>
<!-- Created with Inkscape (http://www.inkscape.org/) -->

<svg
   xmlns:dc="http://purl.org/dc/elements/1.1/"
   xmlns:cc="http://creativecommons.org/ns#"
   xmlns:rdf="http://www.w3.org/1999/02/22-rdf-syntax-ns#"
   xmlns:svg="http://www.w3.org/2000/svg"
   xmlns="http://www.w3.org/2000/svg"
   xmlns:sodipodi="http://sodipodi.sourceforge.net/DTD/sodipodi-0.dtd"
   xmlns:inkscape="http://www.inkscape.org/namespaces/inkscape"
   id="SVGRoot"
   width="256px"
   height="256px"
   version="1.1"
   viewBox="0 0 256 256"
   sodipodi:docname="jc_logo_256_solid.svg"
   inkscape:version="0.92.4 (5da689c313, 2019-01-14)">
  <defs
     id="defs19" />
  <sodipodi:namedview
     pagecolor="#ffffff"
     bordercolor="#666666"
     borderopacity="1"
     objecttolerance="10"
     gridtolerance="10"
     guidetolerance="10"
     inkscape:pageopacity="0"
     inkscape:pageshadow="2"
     inkscape:window-width="1920"
     inkscape:window-height="1027"
     id="namedview17"
     showgrid="false"
     inkscape:zoom="0.921875"
     inkscape:cx="-224.54237"
     inkscape:cy="128"
     inkscape:window-x="-8"
     inkscape:window-y="263"
     inkscape:window-maximized="1"
     inkscape:current-layer="g10" />
  <metadata
     id="metadata2">
    <rdf:RDF>
      <cc:Work
         rdf:about="">
        <dc:format>image/svg+xml</dc:format>
        <dc:type
           rdf:resource="http://purl.org/dc/dcmitype/StillImage" />
        <dc:title />
      </cc:Work>
    </rdf:RDF>
  </metadata>
  <g
     transform="matrix(3.7795 0 0 3.7795 374.96 -743.83)"
     id="g14">
    <g
       transform="translate(-79.365 -48.867)"
       fill="#d5e5ff"
       id="g12">
      <g
         transform="matrix(2.1333 0 0 2.1333 -19.844 -320.19)"
         id="g10">
        <path
           transform="matrix(.26458 0 0 .26458 -19.844 245.67)"
           d="m89.143 74 20 20 1.7343 1.7344c2.8626-1.1259 5.9084-1.7139 8.9844-1.7344 12.449-0.05556 23.043 9.0571 24.848 21.375-13.828 3.6972-24.627 14.502-28.316 28.332-12.22-1.7817-21.309-12.219-21.393-24.568-8e-3 -3.1645 0.58821-6.3014 1.752-9.2442l-14.77-14.77c-4.5699 7.216-6.9917 15.584-6.9824 24.125 0.14097 23.3 18.045 42.639 41.266 44.572 4.5122 17.814 20.581 30.261 38.957 30.178 18.148-0.1115 33.947-12.427 38.484-30h-21.41c-3.5484 6.1465-10.088 9.952-17.186 10-11.046 0.0616-20.05-8.8429-20.111-19.889-0.0616-11.046 8.8429-20.05 19.889-20.111 7.169-0.0227 13.802 3.7914 17.387 10h21.369c-3.6551-14.107-14.693-25.111-28.812-28.721-0.63605-7.6099-3.1982-14.933-7.4453-21.279h17.613l20-20h-75.25z"
           fill="#000"
           id="path4" />
        <path
           transform="matrix(.26458 0 0 .26458 0 32.417)"
           d="m79.889 940c-11.046 0.06131-19.95 9.0656-19.889 20.111 0.061315 11.046 9.0656 19.95 20.111 19.889 7.097-0.048 13.637-3.8535 17.186-10h21.41c0.87914-3.3364 1.2956-6.7724 1.293-10.223-0.0305-3.3005-0.51821-6.5846-1.3555-9.7774h-21.369c-3.5876-6.214-10.212-10.03-17.387-10z"
           fill="#fff"
           id="path6"
           style="fill:#96c6ff;fill-opacity:0.31666666" />
        <path
           transform="matrix(.26458 0 0 .26458 0 32.417)"
           d="m6.9824 901.12c5.1446 5.1446 10.367 10.367 14.77 14.77-0.12061 0.32184-0.25236 0.64051-0.35959 0.96704-0.12191 0.33798-0.21868 0.68442-0.32591 1.0273-0.15889 0.54843-0.3236 1.098-0.44458 1.656-0.0663 0.26784-0.1035 0.54093-0.16089 0.81082-0.09006 0.49826-0.1921 0.99628-0.25174 1.4991-0.04917 0.33569-0.07503 0.66819-0.1105 1.0056-0.0709 0.75504-0.09674 1.5199-0.09874 2.2783 0.01283 0.46939 0.0092 0.93457 0.04846 1.4025 0.02207 0.45529 0.07591 0.91256 0.12283 1.366 0.04384 0.32257 0.07514 0.6378 0.13155 0.95841 0.07565 0.51708 0.18658 1.041 0.29448 1.5523 0.06185 0.25166 0.11212 0.5099 0.18177 0.75951 0.13912 0.56724 0.31647 1.1277 0.49496 1.6838 0.06679 0.18701 0.1235 0.37732 0.19473 0.56269 0.21573 0.61592 0.4667 1.2081 0.72995 1.8053 0.05196 0.1078 0.10155 0.23037 0.15506 0.33741 0.30167 0.65325 0.64286 1.2813 0.99973 1.9061 0.04711 0.0771 0.12113 0.21849 0.16907 0.29505 0.38145 0.64907 0.76554 1.216 1.204 1.828 0.02466 0.0326 0.17302 0.24034 0.19784 0.27284 0.471 0.64809 0.84927 1.098 1.3803 1.6979 3.9126 4.4071 9.2563 7.2902 15.088 8.1406 3.6893-13.83 14.489-24.634 28.316-28.332-0.02438-0.16562-0.05236-0.33093-0.08007-0.49603-0.15019-0.90153-0.34971-1.7942-0.59766-2.6738-0.22575-0.79785-0.49105-1.584-0.79492-2.3555l-0.0039-0.0137-2e-3 -6e-3c-0.2959-0.74733-0.62766-1.48-0.99414-2.1953-0.01684-0.0352-0.03377-0.0703-0.05078-0.10547-0.36113-0.69586-0.7548-1.3744-1.1797-2.0332-0.0285-0.0457-0.05715-0.0912-0.08594-0.13671-0.41287-0.63096-0.85408-1.2429-1.3223-1.834-0.05494-0.0726-0.11028-0.14484-0.16602-0.2168-0.46548-0.5742-0.9562-1.1275-1.4707-1.6582-0.06407-0.0687-0.12852-0.13708-0.19336-0.20508-0.50794-0.51093-1.0377-0.99967-1.5879-1.4648-0.09186-0.0808-0.18431-0.16084-0.27734-0.24024-0.52298-0.42863-1.0631-0.83586-1.6191-1.2207-0.14023-0.10173-0.28151-0.20199-0.42383-0.30078-0.52401-0.34561-1.0608-0.67136-1.6094-0.97656-0.18676-0.10921-0.37492-0.21599-0.56445-0.32031-0.53282-0.27794-1.0755-0.53657-1.627-0.7754-0.21735-0.10014-0.43612-0.19715-0.65625-0.29101-0.53478-0.21332-1.0768-0.4081-1.625-0.58399-0.24935-0.0853-0.50003-0.16673-0.75195-0.24414-0.52225-0.14929-1.0492-0.28152-1.5801-0.39648-0.29631-0.0705-0.59389-0.13565-0.89258-0.19531-0.47897-0.0843-0.96029-0.15468-1.4434-0.21094-0.36101-0.0502-0.72308-0.0925-1.0859-0.12695-0.71896-0.0638-1.4403-0.0964-2.1621-0.0977-0.69993 0.0104-1.3991 0.0501-2.0957 0.11914-0.42904 0.0423-0.85692 0.0957-1.2832 0.16016-0.38613 0.0516-0.771 0.11211-1.1543 0.18164-0.45329 0.0903-0.90398 0.19325-1.3516 0.30859-0.35354 0.0848-0.70518 0.17724-1.0547 0.27735-0.69122 0.19963-1.3735 0.42902-2.0449 0.6875l-0.0039-4e-3 -1.7304-1.7302-13.041-13.041c-5.6709 4.0316-10.923 9.1629-14.119 14.166z"
           fill="#fff"
           id="path8"
           style="fill:#96c6ff;fill-opacity:0.31666666" />
      </g>
    </g>
  </g>
</svg>
